<svg xmlns="http://www.w3.org/2000/svg" viewBox="0 0 1200 720" fill="none">
  <rect width="1200" height="720" fill="#efe6d4"/>
  <rect x="48" y="48" width="1104" height="624" rx="16" fill="#f6efe2" stroke="#cbbda6"/>
  <rect x="48" y="48" width="220" height="624" rx="16" fill="#b42318"/>
  <rect x="48" y="48" width="220" height="624" rx="16" fill="#b42318"/>
  <text x="72" y="96" fill="#f6efe2" font-family="ui-sans-serif, system-ui" font-size="18" font-weight="600">Hospital ERP</text>
  <rect x="72" y="128" width="172" height="36" rx="6" fill="#8c1b13"/>
  <rect x="72" y="176" width="172" height="36" rx="6" fill="#161310"/>
  <rect x="72" y="224" width="172" height="36" rx="6" fill="#161310"/>
  <rect x="72" y="272" width="172" height="36" rx="6" fill="#161310"/>
  <rect x="308" y="80" width="240" height="110" rx="10" fill="#f0dcc8"/>
  <rect x="564" y="80" width="240" height="110" rx="10" fill="#f0dcc8"/>
  <rect x="820" y="80" width="292" height="110" rx="10" fill="#f0dcc8"/>
  <text x="328" y="128" fill="#b42318" font-family="ui-sans-serif, system-ui" font-size="28" font-weight="600">128</text>
  <text x="328" y="158" fill="#5c5348" font-family="ui-sans-serif, system-ui" font-size="14">Active patients</text>
  <text x="584" y="128" fill="#b42318" font-family="ui-sans-serif, system-ui" font-size="28" font-weight="600">36</text>
  <text x="584" y="158" fill="#5c5348" font-family="ui-sans-serif, system-ui" font-size="14">Today's appointments</text>
  <text x="840" y="128" fill="#b42318" font-family="ui-sans-serif, system-ui" font-size="28" font-weight="600">4</text>
  <text x="840" y="158" fill="#5c5348" font-family="ui-sans-serif, system-ui" font-size="14">Open billing exceptions</text>
  <rect x="308" y="216" width="804" height="416" rx="10" fill="#efe6d4" stroke="#cbbda6"/>
  <text x="332" y="256" fill="#161310" font-family="ui-sans-serif, system-ui" font-size="16" font-weight="600">Patient · clinical · billing workflow</text>
  <rect x="332" y="288" width="230" height="300" rx="8" fill="#f6efe2" stroke="#cbbda6"/>
  <rect x="586" y="288" width="230" height="300" rx="8" fill="#f6efe2" stroke="#cbbda6"/>
  <rect x="840" y="288" width="240" height="300" rx="8" fill="#f6efe2" stroke="#cbbda6"/>
  <text x="352" y="324" fill="#b42318" font-family="ui-sans-serif, system-ui" font-size="14" font-weight="600">Registration</text>
  <text x="606" y="324" fill="#b42318" font-family="ui-sans-serif, system-ui" font-size="14" font-weight="600">Clinical</text>
  <text x="860" y="324" fill="#b42318" font-family="ui-sans-serif, system-ui" font-size="14" font-weight="600">Billing</text>
</svg>
